<?xml version="1.0" standalone="no"?>
<!DOCTYPE svg PUBLIC "-//W3C//DTD SVG 20010904//EN"
 "http://www.w3.org/TR/2001/REC-SVG-20010904/DTD/svg10.dtd">
<svg version="1.0" xmlns="http://www.w3.org/2000/svg"
 width="300.000000pt" height="300.000000pt" viewBox="0 0 300.000000 300.000000"
 preserveAspectRatio="xMidYMid meet">
<metadata>
Created by potrace 1.14, written by Peter Selinger 2001-2017
</metadata>
<g transform="translate(0.000000,300.000000) scale(0.100000,-0.100000)"
fill="#000000" stroke="none">
<path d="M545 2617 c-24 -8 -74 -47 -60 -47 2 0 0 -12 -5 -26 -7 -18 -7 -30 0
-39 5 -6 6 -15 2 -19 -9 -10 -10 -86 -1 -86 4 0 4 -13 -1 -30 -5 -18 -5 -32 1
-36 6 -4 6 -11 -1 -19 -8 -10 -8 -15 0 -20 8 -5 8 -10 0 -20 -8 -10 -8 -15 0
-20 8 -5 8 -10 0 -20 -8 -10 -8 -15 0 -20 8 -5 8 -11 -1 -21 -9 -11 -9 -14 0
-14 9 0 9 -5 1 -20 -8 -15 -8 -20 1 -20 9 0 9 -3 0 -14 -9 -10 -9 -16 -1 -21
8 -5 8 -10 0 -20 -7 -9 -7 -15 -1 -19 10 -6 8 -37 -4 -56 -3 -6 -1 -10 5 -10
8 0 8 -6 0 -20 -8 -14 -8 -20 0 -20 8 0 8 -6 0 -20 -8 -14 -8 -20 0 -20 7 0 8
-6 2 -17 -12 -23 -11 -133 0 -133 5 0 6 -5 3 -10 -12 -19 -14 -100 -2 -93 6 4
7 1 1 -8 -12 -20 -14 -68 -3 -75 5 -3 4 -14 -2 -27 -9 -16 -9 -22 0 -25 6 -2
8 -9 4 -15 -11 -18 -12 -37 -2 -37 6 0 5 -8 -1 -20 -8 -14 -8 -20 0 -20 6 0 8
-4 5 -10 -12 -19 -14 -50 -4 -56 6 -4 6 -11 -2 -20 -9 -11 -9 -14 0 -14 9 0 9
-5 1 -20 -8 -14 -8 -20 0 -20 8 0 8 -6 0 -20 -8 -14 -8 -20 0 -20 7 0 8 -6 0
-19 -7 -14 -7 -22 0 -26 8 -5 8 -11 0 -20 -8 -9 -8 -15 0 -20 6 -3 7 -12 3
-18 -11 -18 -10 -137 2 -137 7 0 7 -3 0 -8 -12 -8 -13 -22 -2 -39 4 -6 3 -15
-3 -18 -8 -5 -8 -11 0 -20 8 -9 8 -15 0 -20 -7 -4 -7 -12 0 -26 6 -10 7 -19 3
-19 -10 0 -10 -47 0 -57 4 -3 2 -12 -4 -19 -7 -8 -7 -14 1 -19 7 -4 7 -12 0
-25 -7 -13 -7 -21 0 -25 6 -4 8 -11 4 -16 -10 -17 -12 -59 -2 -59 5 0 4 -9 -2
-19 -7 -14 -7 -22 0 -26 6 -4 7 -12 3 -18 -12 -19 -11 -117 1 -117 6 0 4 -5
-4 -10 -11 -7 -11 -10 -2 -10 7 0 10 -4 7 -10 -3 -5 -1 -10 5 -10 7 0 10 -7 6
-15 -4 -10 1 -15 14 -15 11 0 20 -5 20 -11 0 -6 7 -9 15 -5 8 3 15 2 15 -2 0
-4 53 -7 118 -7 66 0 120 -4 124 -10 5 -7 8 -7 8 0 0 12 720 12 740 0 7 -5 11
-4 7 1 -6 11 364 11 381 0 7 -4 12 -2 12 3 0 12 27 10 47 -2 6 -4 14 -4 17 1
5 9 148 8 163 -1 6 -4 13 -3 17 0 4 4 64 8 134 8 70 1 136 5 147 10 33 15 53
37 47 53 -4 11 -2 13 8 7 10 -6 12 -4 7 10 -4 9 -3 23 3 30 6 7 7 15 3 18 -4
3 -6 91 -3 196 3 105 3 191 0 191 -3 0 -5 16 -5 35 0 19 5 35 10 35 6 0 6 3 0
8 -14 9 -13 65 0 74 6 5 5 8 -3 8 -14 0 -12 21 3 32 6 5 5 8 -2 8 -14 0 -13
46 1 68 4 7 3 12 -3 12 -12 0 -9 103 4 112 6 5 6 8 -1 8 -11 0 -11 60 0 78 3
6 2 13 -3 16 -6 4 -6 18 -1 36 5 17 6 30 2 30 -7 0 -6 105 1 203 1 20 0 37 -3
37 -6 0 -3 234 4 263 2 9 0 17 -5 17 -11 0 -7 23 6 32 7 5 6 8 -1 8 -12 0 -12
49 0 68 4 7 3 12 -2 12 -5 0 -9 7 -9 15 0 8 5 15 11 15 7 0 7 3 1 8 -15 11
-17 32 -3 32 9 0 9 3 3 8 -14 9 -13 65 0 74 6 5 6 8 -1 8 -14 0 -14 30 0 30 6
0 5 4 -2 9 -8 4 -14 12 -14 16 0 4 6 12 14 16 7 5 8 9 2 9 -14 0 -14 30 0 30
6 0 5 4 -2 9 -8 4 -14 12 -14 16 0 4 6 12 14 16 7 5 8 9 2 9 -14 0 -14 30 0
30 6 0 5 4 -2 9 -8 4 -14 12 -14 16 0 4 6 12 14 16 7 5 8 9 2 9 -14 0 -14 30
0 30 6 0 5 4 -3 9 -8 5 -12 18 -9 29 5 16 2 19 -11 15 -9 -4 -13 -3 -9 1 10
12 -23 45 -40 38 -10 -3 -13 -1 -8 7 9 14 -16 11 -26 -4 -5 -7 -8 -6 -8 1 0
11 -85 12 -97 1 -3 -4 -12 -2 -20 4 -8 7 -13 7 -13 2 0 -7 -15 -8 -40 -3 -26
5 -40 4 -40 -3 0 -7 -4 -7 -12 1 -7 7 -17 8 -30 1 -10 -5 -18 -6 -18 -2 0 10
-91 10 -107 0 -8 -5 -13 -3 -13 3 0 8 -6 8 -20 0 -11 -6 -20 -7 -20 -3 0 7
-96 9 -125 3 -5 -1 -14 -1 -20 0 -27 6 -51 4 -57 -5 -5 -6 -8 -5 -8 4 0 11 -3
11 -16 0 -9 -7 -18 -9 -22 -3 -8 11 -292 12 -292 1 0 -4 -9 -3 -20 3 -11 6
-20 7 -20 3 0 -4 -36 -6 -80 -3 -44 3 -80 1 -80 -3 0 -4 -9 -3 -20 3 -14 8
-20 8 -20 0 0 -8 -6 -8 -20 0 -14 8 -20 8 -20 0 0 -8 -6 -8 -20 0 -14 8 -20 8
-20 0 0 -8 -6 -8 -20 0 -14 8 -20 8 -20 0 0 -8 -6 -8 -20 0 -14 8 -20 8 -20 0
0 -8 -6 -8 -20 0 -14 8 -20 8 -20 0 0 -8 -6 -8 -20 0 -11 6 -20 7 -20 2 0 -5
-18 -6 -40 -2 -22 4 -40 3 -40 -2 0 -5 -9 -4 -20 2 -11 6 -20 7 -20 3 0 -4
-45 -6 -100 -3 -55 3 -100 1 -100 -3 0 -5 -4 -5 -10 -2 -17 10 -76 11 -105 2z"/>
</g>
</svg>
